<svg width="40" height="60" viewBox="0 0 40 60" xmlns="http://www.w3.org/2000/svg">
    <!-- Base character -->
    <path d="M20 10 C25 10 30 15 30 20 C30 25 25 30 20 30 C15 30 10 25 10 20 C10 15 15 10 20 10" fill="#FFB6C1"/>

    <!-- Anime-style hair -->
    <path d="M20 5 
             C30 5 35 15 35 25 
             L33 35 L30 25 L25 35 L20 25 L15 35 L10 25 L7 35 L5 25 
             C5 15 10 5 20 5" 
          fill="#8B4513" stroke="#6B3E23" stroke-width="1"/>

    <!-- Face details -->
    <circle cx="15" cy="20" r="2.5" fill="black"/>
    <circle cx="25" cy="20" r="2.5" fill="black"/>
    <path d="M17 25 C18.5 26 21.5 26 23 25" 
          fill="none" stroke="black" stroke-width="1"/>

    <!-- Outfit details -->
    <path d="M10 30 L30 30 L35 60 L5 60 Z" fill="#FF69B4"/>
    <path d="M15 30 L15 50 M25 30 L25 50" 
          stroke="#FF1493" stroke-width="1" fill="none"/>
</svg>