<svg width="40" height="60" viewBox="0 0 40 60" xmlns="http://www.w3.org/2000/svg">
    <!-- Base character -->
    <defs>
        <linearGradient id="hairGradient" x1="0%" y1="0%" x2="100%" y2="0%">
            <stop offset="0%" style="stop-color:#FFD700"/>
            <stop offset="50%" style="stop-color:#FFA500"/>
            <stop offset="100%" style="stop-color:#FFD700"/>
        </linearGradient>
    </defs>

    <!-- Body -->
    <path d="M10 30 L30 30 L35 60 L5 60 Z" fill="#FF69B4"/>

    <!-- Face -->
    <path d="M20 10 C25 10 30 15 30 20 C30 25 25 30 20 30 C15 30 10 25 10 20 C10 15 15 10 20 10" 
          fill="#FFF5EE"/>

    <!-- Anime-style blonde hair -->
    <path d="M20 5 
             C30 5 35 15 35 25 
             L33 35 L30 25 L25 35 L20 25 L15 35 L10 25 L7 35 L5 25 
             C5 15 10 5 20 5" 
          fill="url(#hairGradient)"/>

    <!-- Hair highlights -->
    <path d="M15 15 C20 10 25 10 30 15" 
          stroke="#FFE4B5" stroke-width="0.5" fill="none"/>

    <!-- Face details -->
    <!-- Left eye with blinking animation -->
    <g>
        <circle cx="15" cy="20" r="3.5" fill="#4B0082">
            <animate attributeName="ry"
                     values="3.5;0.1;3.5"
                     dur="4s"
                     repeatCount="indefinite"
                     begin="0s"/>
        </circle>
        <!-- Eye highlight -->
        <circle cx="16" cy="19" r="1" fill="white">
            <animate attributeName="r"
                     values="1;0;1"
                     dur="4s"
                     repeatCount="indefinite"
                     begin="0s"/>
        </circle>
    </g>

    <!-- Right eye with blinking animation -->
    <g>
        <circle cx="25" cy="20" r="3.5" fill="#4B0082">
            <animate attributeName="ry"
                     values="3.5;0.1;3.5"
                     dur="4s"
                     repeatCount="indefinite"
                     begin="0s"/>
        </circle>
        <!-- Eye highlight -->
        <circle cx="26" cy="19" r="1" fill="white">
            <animate attributeName="r"
                     values="1;0;1"
                     dur="4s"
                     repeatCount="indefinite"
                     begin="0s"/>
        </circle>
    </g>

    <path d="M17 25 C18.5 26 21.5 26 23 25" 
          fill="none" stroke="#FF69B4" stroke-width="1"/> <!-- Smile -->

    <!-- Outfit details -->
    <path d="M15 30 L15 50 M25 30 L25 50" 
          stroke="#FF1493" stroke-width="1" fill="none"/>

    <!-- Blush -->
    <circle cx="13" cy="23" r="2" fill="#FFB6C1" opacity="0.5"/>
    <circle cx="27" cy="23" r="2" fill="#FFB6C1" opacity="0.5"/>
</svg>