<svg width="800" height="600" viewBox="0 0 800 600" xmlns="http://www.w3.org/2000/svg">
    <!-- Sky background -->
    <rect width="800" height="600" fill="#87CEEB"/>
    <!-- Ground -->
    <rect y="550" width="800" height="50" fill="#90EE90"/>

    <!-- Houses with waffle pattern roofs and stone fronts -->
    <g>
        <!-- House 1 with chimney -->
        <g transform="translate(90,420)">
            <!-- Stone wall pattern -->
            <pattern id="stonePattern" width="20" height="10" patternUnits="userSpaceOnUse">
                <rect width="18" height="8" x="1" y="1" fill="#808080" rx="2"/>
            </pattern>
            <!-- Wall -->
            <rect x="0" y="30" width="140" height="60" fill="url(#stonePattern)" stroke="#696969"/>
            <!-- Waffle roof -->
            <path d="M0 30 L70 0 L140 30" fill="none" stroke="#8B4513" stroke-width="4"/>
            <path d="M0 30 L140 30" fill="none" stroke="#8B4513" stroke-width="4"/>
            <!-- Waffle pattern -->
            <g stroke="#8B4513" stroke-width="2">
                <path d="M14 6 L126 6"/>
                <path d="M14 12 L126 12"/>
                <path d="M14 18 L126 18"/>
                <path d="M14 24 L126 24"/>
                <path d="M20 0 L20 30"/>
                <path d="M40 0 L40 30"/>
                <path d="M60 0 L60 30"/>
                <path d="M80 0 L80 30"/>
                <path d="M100 0 L100 30"/>
                <path d="M120 0 L120 30"/>
            </g>
            <!-- Chimney with animated smoke -->
            <rect x="100" y="-20" width="10" height="30" fill="#8B4513"/>
            <!-- Animated smoke -->
            <g fill="#DCDCDC" opacity="0.7">
                <circle r="3">
                    <animateMotion 
                        path="M 105 -20 C 110 -30 100 -40 105 -50" 
                        dur="3s"
                        repeatCount="indefinite"/>
                    <animate attributeName="opacity"
                        values="0.7;0.3;0.7"
                        dur="3s"
                        repeatCount="indefinite"/>
                </circle>
                <circle r="4">
                    <animateMotion 
                        path="M 105 -20 C 110 -35 95 -45 100 -60" 
                        dur="4s"
                        repeatCount="indefinite"/>
                    <animate attributeName="opacity"
                        values="0.7;0.2;0.7"
                        dur="4s"
                        repeatCount="indefinite"/>
                </circle>
            </g>
        </g>

        <!-- House 2 -->
        <g transform="translate(240,420)">
            <rect x="0" y="30" width="140" height="60" fill="url(#stonePattern)" stroke="#696969"/>
            <path d="M0 30 L70 0 L140 30" fill="none" stroke="#8B4513" stroke-width="4"/>
            <path d="M0 30 L140 30" fill="none" stroke="#8B4513" stroke-width="4"/>
            <g stroke="#8B4513" stroke-width="2">
                <path d="M14 6 L126 6"/>
                <path d="M14 12 L126 12"/>
                <path d="M14 18 L126 18"/>
                <path d="M14 24 L126 24"/>
                <path d="M20 0 L20 30"/>
                <path d="M40 0 L40 30"/>
                <path d="M60 0 L60 30"/>
                <path d="M80 0 L80 30"/>
                <path d="M100 0 L100 30"/>
                <path d="M120 0 L120 30"/>
            </g>
        </g>

        <!-- House 3 -->
        <g transform="translate(390,420)">
            <rect x="0" y="30" width="140" height="60" fill="url(#stonePattern)" stroke="#696969"/>
            <path d="M0 30 L70 0 L140 30" fill="none" stroke="#8B4513" stroke-width="4"/>
            <path d="M0 30 L140 30" fill="none" stroke="#8B4513" stroke-width="4"/>
            <g stroke="#8B4513" stroke-width="2">
                <path d="M14 6 L126 6"/>
                <path d="M14 12 L126 12"/>
                <path d="M14 18 L126 18"/>
                <path d="M14 24 L126 24"/>
                <path d="M20 0 L20 30"/>
                <path d="M40 0 L40 30"/>
                <path d="M60 0 L60 30"/>
                <path d="M80 0 L80 30"/>
                <path d="M100 0 L100 30"/>
                <path d="M120 0 L120 30"/>
            </g>
        </g>
    </g>
</svg>