<svg width="800" height="600" viewBox="0 0 800 600" xmlns="http://www.w3.org/2000/svg">
    <!-- Sky background -->
    <rect width="800" height="600" fill="#87CEEB"/>
    <!-- Ground -->
    <rect y="550" width="800" height="50" fill="#90EE90"/>

    <!-- Houses with triangular waffle pattern roofs and stone fronts -->
    <g>
        <!-- House 1 with chimney -->
        <g transform="translate(90,420)">
            <!-- Stone wall pattern -->
            <pattern id="stonePattern" width="20" height="10" patternUnits="userSpaceOnUse">
                <rect width="18" height="8" x="1" y="1" fill="#808080" rx="2"/>
            </pattern>
            <!-- Wall -->
            <rect x="0" y="30" width="140" height="60" fill="url(#stonePattern)" stroke="#696969"/>
            <!-- Triangular roof base -->
            <path d="M0 30 L70 0 L140 30 Z" fill="#8B4513"/>
            <!-- Waffle pattern on roof -->
            <g stroke="#A0522D" stroke-width="1">
                <!-- Horizontal curves following roof slope -->
                <path d="M10 27 Q70 -3 130 27" fill="none"/>
                <path d="M20 24 Q70 -1 120 24" fill="none"/>
                <path d="M30 21 Q70 1 110 21" fill="none"/>
                <path d="M40 18 Q70 3 100 18" fill="none"/>
                <path d="M50 15 Q70 5 90 15" fill="none"/>
                <!-- Diagonal lines from peak -->
                <path d="M70 0 L40 30" fill="none"/>
                <path d="M70 0 L60 30" fill="none"/>
                <path d="M70 0 L80 30" fill="none"/>
                <path d="M70 0 L100 30" fill="none"/>
            </g>
            <!-- Chimney with animated smoke -->
            <rect x="100" y="-20" width="10" height="30" fill="#8B4513"/>
            <!-- Animated smoke -->
            <g fill="#DCDCDC" opacity="0.7">
                <circle r="3">
                    <animateMotion 
                        path="M 105 -20 C 110 -30 100 -40 105 -50" 
                        dur="3s"
                        repeatCount="indefinite"/>
                    <animate attributeName="opacity"
                        values="0.7;0.3;0.7"
                        dur="3s"
                        repeatCount="indefinite"/>
                </circle>
                <circle r="4">
                    <animateMotion 
                        path="M 105 -20 C 110 -35 95 -45 100 -60" 
                        dur="4s"
                        repeatCount="indefinite"/>
                    <animate attributeName="opacity"
                        values="0.7;0.2;0.7"
                        dur="4s"
                        repeatCount="indefinite"/>
                </circle>
            </g>
        </g>

        <!-- House 2 -->
        <g transform="translate(240,420)">
            <rect x="0" y="30" width="140" height="60" fill="url(#stonePattern)" stroke="#696969"/>
            <!-- Triangular roof base -->
            <path d="M0 30 L70 0 L140 30 Z" fill="#8B4513"/>
            <!-- Waffle pattern on roof -->
            <g stroke="#A0522D" stroke-width="1">
                <path d="M10 27 Q70 -3 130 27" fill="none"/>
                <path d="M20 24 Q70 -1 120 24" fill="none"/>
                <path d="M30 21 Q70 1 110 21" fill="none"/>
                <path d="M40 18 Q70 3 100 18" fill="none"/>
                <path d="M50 15 Q70 5 90 15" fill="none"/>
                <path d="M70 0 L40 30" fill="none"/>
                <path d="M70 0 L60 30" fill="none"/>
                <path d="M70 0 L80 30" fill="none"/>
                <path d="M70 0 L100 30" fill="none"/>
            </g>
        </g>

        <!-- House 3 -->
        <g transform="translate(390,420)">
            <rect x="0" y="30" width="140" height="60" fill="url(#stonePattern)" stroke="#696969"/>
            <!-- Triangular roof base -->
            <path d="M0 30 L70 0 L140 30 Z" fill="#8B4513"/>
            <!-- Waffle pattern on roof -->
            <g stroke="#A0522D" stroke-width="1">
                <path d="M10 27 Q70 -3 130 27" fill="none"/>
                <path d="M20 24 Q70 -1 120 24" fill="none"/>
                <path d="M30 21 Q70 1 110 21" fill="none"/>
                <path d="M40 18 Q70 3 100 18" fill="none"/>
                <path d="M50 15 Q70 5 90 15" fill="none"/>
                <path d="M70 0 L40 30" fill="none"/>
                <path d="M70 0 L60 30" fill="none"/>
                <path d="M70 0 L80 30" fill="none"/>
                <path d="M70 0 L100 30" fill="none"/>
            </g>
        </g>
    </g>
</svg>