<svg width="80" height="60" viewBox="0 0 80 60" xmlns="http://www.w3.org/2000/svg">
    <defs>
        <linearGradient id="wingGradient" x1="0%" y1="0%" x2="100%" y2="0%">
            <stop offset="0%" style="stop-color:#800080"/>
            <stop offset="50%" style="stop-color:#9400D3"/>
            <stop offset="100%" style="stop-color:#800080"/>
        </linearGradient>
    </defs>

    <!-- Left Wing -->
    <path d="M0 30 
             C10 20 15 10 20 5 
             L25 20 L30 10 L35 25 
             L20 40 Z" 
          fill="url(#wingGradient)" stroke="#4B0082" stroke-width="1">
        <animate attributeName="d" 
                 dur="2s" 
                 repeatCount="indefinite"
                 values="M0 30 C10 20 15 10 20 5 L25 20 L30 10 L35 25 L20 40 Z;
                         M0 30 C10 25 15 15 20 10 L25 25 L30 15 L35 30 L20 45 Z;
                         M0 30 C10 20 15 10 20 5 L25 20 L30 10 L35 25 L20 40 Z"/>
    </path>

    <!-- Right Wing -->
    <path d="M80 30 
             C70 20 65 10 60 5 
             L55 20 L50 10 L45 25 
             L60 40 Z" 
          fill="url(#wingGradient)" stroke="#4B0082" stroke-width="1">
        <animate attributeName="d" 
                 dur="2s" 
                 repeatCount="indefinite"
                 values="M80 30 C70 20 65 10 60 5 L55 20 L50 10 L45 25 L60 40 Z;
                         M80 30 C70 25 65 15 60 10 L55 25 L50 15 L45 30 L60 45 Z;
                         M80 30 C70 20 65 10 60 5 L55 20 L50 10 L45 25 L60 40 Z"/>
    </path>

    <!-- Body -->
    <path d="M25 15 L55 15 L50 50 L30 50 Z" fill="#4B0082"/>

    <!-- Head -->
    <circle cx="40" cy="10" r="8" fill="#4B0082"/>

    <!-- Face -->
    <circle cx="37" cy="8" r="1" fill="white"/> <!-- Left eye -->
    <circle cx="43" cy="8" r="1" fill="white"/> <!-- Right eye -->
    <path d="M38 12 L42 12" stroke="white" stroke-width="0.5" fill="none"/> <!-- Mouth -->

    <!-- Armor plates -->
    <path d="M28 20 L52 20 L50 30 L30 30 Z" fill="#6A5ACD" stroke="#483D8B" stroke-width="0.5"/>
    <path d="M30 33 L50 33 L48 43 L32 43 Z" fill="#6A5ACD" stroke="#483D8B" stroke-width="0.5"/>

    <!-- Crown/helmet -->
    <path d="M34 5 L46 5 L44 2 L42 4 L40 2 L38 4 L36 2 Z" fill="gold"/>
</svg>